<svg id="Layer_2" data-name="Layer 2" xmlns="http://www.w3.org/2000/svg" width="33" height="33" viewBox="0 0 33 33">
  <g id="invisible_box" data-name="invisible box">
    <rect id="Rectangle_37" data-name="Rectangle 37" width="33" height="33" fill="none"/>
  </g>
  <g id="icons_Q2" data-name="icons Q2" transform="translate(1.383 1.383)">
    <path id="Path_16" data-name="Path 16" d="M17.211,2A15.142,15.142,0,1,0,27.988,6.435,15.211,15.211,0,0,0,17.211,2Zm7.882,11.339-9.68,9.68a1.314,1.314,0,0,1-1.936,0L9.4,18.94a1.521,1.521,0,0,1-.277-1.867,1.383,1.383,0,0,1,2.143-.138l3.181,3.181L23.157,11.4a1.383,1.383,0,0,1,1.936,1.936Z" transform="translate(-2 -2)" fill="#0b30e1"/>
  </g>
</svg>
