<svg xmlns="http://www.w3.org/2000/svg" xmlns:xlink="http://www.w3.org/1999/xlink" width="50" height="50" viewBox="0 0 50 50">
  <defs>
    <clipPath id="clip-path">
      <rect id="Rectangle_30" data-name="Rectangle 30" width="50" height="50" transform="translate(1062 1563)" fill="#fff"/>
    </clipPath>
  </defs>
  <g id="Mask_Group_3" data-name="Mask Group 3" transform="translate(-1062 -1563)" clip-path="url(#clip-path)">
    <g id="Group_9" data-name="Group 9" transform="translate(709.179 -905.036)">
      <path id="Path_8" data-name="Path 8" d="M911.853-554.734c.392.093.786.176,1.174.281a7.766,7.766,0,0,1,5.753,7.435q.025,14.739.005,29.477a1.951,1.951,0,0,1-1.95,2.059,1.961,1.961,0,0,1-1.953-2.1q0-14.567,0-29.135a3.894,3.894,0,0,0-3.332-4.056,5.581,5.581,0,0,0-.924-.049q-10.519,0-21.037-.007a3.234,3.234,0,0,1-.96-.122,1.916,1.916,0,0,1-1.284-1.735,1.943,1.943,0,0,1,1.115-1.852c.146-.069.3-.128.444-.192Z" transform="translate(-519.92 3022.77)" fill="#0b30e1"/>
      <path id="Path_9" data-name="Path 9" d="M868.934-520.02q0-6.566,0-13.133a7.79,7.79,0,0,1,6.332-7.762,7.963,7.963,0,0,1,1.551-.142q9.254-.014,18.507,0a7.793,7.793,0,0,1,7.885,7.905q.011,13.133,0,26.266a7.8,7.8,0,0,1-7.884,7.91q-9.254.015-18.507,0a7.8,7.8,0,0,1-7.886-7.907Q868.925-513.453,868.934-520.02Zm30.373.013q0-6.493,0-12.985a3.916,3.916,0,0,0-4.151-4.164q-9.082,0-18.163,0a3.914,3.914,0,0,0-4.152,4.162q0,12.961,0,25.921a3.92,3.92,0,0,0,4.175,4.19q9.057,0,18.113,0a3.923,3.923,0,0,0,4.177-4.187Q899.309-513.539,899.307-520.007Z" transform="translate(-512.16 3017.008)" fill="#0b30e1"/>
    </g>
  </g>
</svg>
