<svg xmlns="http://www.w3.org/2000/svg" xmlns:xlink="http://www.w3.org/1999/xlink" width="50" height="50" viewBox="0 0 50 50">
  <defs>
    <clipPath id="clip-path">
      <rect id="Rectangle_31" data-name="Rectangle 31" width="50" height="50" transform="translate(620 1563)" fill="#fff"/>
    </clipPath>
  </defs>
  <g id="Mask_Group_4" data-name="Mask Group 4" transform="translate(-620 -1563)" clip-path="url(#clip-path)">
    <g id="Group_8" data-name="Group 8" transform="translate(171.72 -837.593)">
      <path id="Path_10" data-name="Path 10" d="M968.877-590.31q0-5.928,0-11.855a2.148,2.148,0,0,1,1.794-2.31,2.13,2.13,0,0,1,2.484,1.95c.013.183.007.368.007.552v23.159a4.1,4.1,0,0,0,4.313,4.313H994.52a4.1,4.1,0,0,0,4.313-4.314q0-11.68,0-23.359a2.148,2.148,0,0,1,1.7-2.284,2.109,2.109,0,0,1,2.541,1.745,4.31,4.31,0,0,1,.047.7q0,11.629,0,23.259a8.379,8.379,0,0,1-7,8.422,8.427,8.427,0,0,1-1.5.122q-8.623.013-17.245,0a8.4,8.4,0,0,1-8.5-8.5Q968.869-584.507,968.877-590.31Z" transform="translate(-512.719 3019.388)" fill="#0b30e1"/>
      <path id="Path_11" data-name="Path 11" d="M993.988-614.335h1.525c2.3,0,4.61-.011,6.916,0a2.145,2.145,0,0,1,2.168,2.764,2.138,2.138,0,0,1-1.865,1.52c-.116.01-.234.007-.351.007q-16.939,0-33.879,0a2.151,2.151,0,0,1-2.314-2.165,2.156,2.156,0,0,1,2.307-2.128c2.573-.008,5.145,0,7.718,0h.678v-.565c0-1.206-.008-2.41,0-3.616a2.117,2.117,0,0,1,2.229-2.246q6.314-.018,12.629,0a2.116,2.116,0,0,1,2.233,2.241C994-617.15,993.988-615.781,993.988-614.335Zm-12.8-.043h8.5v-2.065h-8.5Z" transform="translate(-512.16 3022.77)" fill="#0b30e1"/>
      <path id="Path_12" data-name="Path 12" d="M982.392-589.508c0-2.493-.009-4.987,0-7.481a2.121,2.121,0,0,1,1.76-2.084,2.1,2.1,0,0,1,2.3,1.217,2.851,2.851,0,0,1,.211,1.07q.019,7.33.006,14.661a2.156,2.156,0,0,1-2.172,2.314,2.153,2.153,0,0,1-2.112-2.316Q982.388-585.817,982.392-589.508Z" transform="translate(-515.529 3018.265)" fill="#0b30e1"/>
      <path id="Path_13" data-name="Path 13" d="M997.47-589.416c0,2.494.008,4.987,0,7.481a2.1,2.1,0,0,1-1.6,2.052,2.04,2.04,0,0,1-2.328-.945,2.706,2.706,0,0,1-.333-1.236q-.034-7.38-.012-14.761a2.146,2.146,0,0,1,2.157-2.276,2.15,2.15,0,0,1,2.125,2.3Q997.476-593.106,997.47-589.416Z" transform="translate(-517.774 3018.264)" fill="#0b30e1"/>
    </g>
  </g>
</svg>
