<svg xmlns="http://www.w3.org/2000/svg" xmlns:xlink="http://www.w3.org/1999/xlink" width="62" height="62" viewBox="0 0 62 62">
  <defs>
    <filter id="Rectangle_97" x="0" y="0" width="62" height="62" filterUnits="userSpaceOnUse">
      <feOffset dy="3" input="SourceAlpha"/>
      <feGaussianBlur stdDeviation="3" result="blur"/>
      <feFlood flood-opacity="0.161"/>
      <feComposite operator="in" in2="blur"/>
      <feComposite in="SourceGraphic"/>
    </filter>
  </defs>
  <g id="Group_4720" data-name="Group 4720" transform="translate(-815 -4227)">
    <g transform="matrix(1, 0, 0, 1, 815, 4227)" filter="url(#Rectangle_97)">
      <rect id="Rectangle_97-2" data-name="Rectangle 97" width="44" height="44" rx="8" transform="translate(9 6)" fill="#fff"/>
    </g>
    <path id="Path_292" data-name="Path 292" d="M286.9,1596.744v-3.637H283.05v-1.871q0-2.776,2.537-2.776a5.276,5.276,0,0,1,1.91.392v-3.833a8.712,8.712,0,0,0-2.568-.318,7.066,7.066,0,0,0-4.937,1.705,5.854,5.854,0,0,0-1.88,4.557v2.143h-2.828v3.637h2.828l-.021,11.938c.017.022,4.876-.006,4.935.023l.022-11.962Z" transform="translate(564.834 2658.4)" fill="#0b30e1"/>
  </g>
</svg>
