<svg xmlns="http://www.w3.org/2000/svg" xmlns:xlink="http://www.w3.org/1999/xlink" width="62" height="62" viewBox="0 0 62 62">
  <defs>
    <filter id="Rectangle_98" x="0" y="0" width="62" height="62" filterUnits="userSpaceOnUse">
      <feOffset dy="3" input="SourceAlpha"/>
      <feGaussianBlur stdDeviation="3" result="blur"/>
      <feFlood flood-opacity="0.161"/>
      <feComposite operator="in" in2="blur"/>
      <feComposite in="SourceGraphic"/>
    </filter>
  </defs>
  <g id="Group_4717" data-name="Group 4717" transform="translate(-891 -4227)">
    <g transform="matrix(1, 0, 0, 1, 891, 4227)" filter="url(#Rectangle_98)">
      <g id="Rectangle_98-2" data-name="Rectangle 98" transform="translate(9 6)" fill="none" stroke="#fff" stroke-width="2">
        <rect width="44" height="44" rx="8" stroke="none"/>
        <rect x="1" y="1" width="42" height="42" rx="7" fill="none"/>
      </g>
    </g>
    <path id="Path_290" data-name="Path 290" d="M1163.78,220.851c3.053,3.31,6.38,5.507,10.3,5.3-.056-5.017,3.659-7.918,8.909-4.348l2.951-1.282-1.67,2.509,2.283-.39-2.283,2.118c-.557,14.216-12.806,17.672-21.77,12.989,3.023-.188,5.4-.773,6.793-1.951a5.7,5.7,0,0,1-4.232-3.512l1.837-.112c-2.018-.686-3.183-2.392-3.675-4.906l1.949.167C1163.237,225.791,1163,223.514,1163.78,220.851Z" transform="translate(-252.424 4024.948)" fill="#fff"/>
  </g>
</svg>
