<svg id="Layer_2" data-name="Layer 2" xmlns="http://www.w3.org/2000/svg" width="48" height="48" viewBox="0 0 48 48">
  <g id="invisible_box" data-name="invisible box">
    <rect id="Rectangle_2797" data-name="Rectangle 2797" width="48" height="48" fill="none"/>
  </g>
  <g id="icons_Q2" data-name="icons Q2">
    <g id="Group_8704" data-name="Group 8704">
      <path id="Path_21683" data-name="Path 21683" d="M42,12a2,2,0,0,1-2,2H8a2,2,0,0,1-2-2H6a2,2,0,0,1,2-2H40A2,2,0,0,1,42,12Z"/>
      <path id="Path_21684" data-name="Path 21684" d="M42,24a2,2,0,0,1-2,2H8a2,2,0,0,1-2-2H6a2,2,0,0,1,2-2H40A2,2,0,0,1,42,24Z"/>
      <path id="Path_21685" data-name="Path 21685" d="M42,36a2,2,0,0,1-2,2H8a2,2,0,0,1-2-2H6a2,2,0,0,1,2-2H40A2,2,0,0,1,42,36Z"/>
    </g>
  </g>
</svg>
