<svg xmlns="http://www.w3.org/2000/svg" xmlns:xlink="http://www.w3.org/1999/xlink" width="50" height="50" viewBox="0 0 50 50">
  <defs>
    <clipPath id="clip-path">
      <rect id="Rectangle_32" data-name="Rectangle 32" width="50" height="50" transform="translate(178 1563)" fill="#fff"/>
    </clipPath>
  </defs>
  <g id="Mask_Group_5" data-name="Mask Group 5" transform="translate(-178 -1563)" clip-path="url(#clip-path)">
    <g id="Group_7" data-name="Group 7" transform="translate(-353.016 -923.127)">
      <path id="Path_14" data-name="Path 14" d="M1048.531-511.637q0-9.65,0-19.3a5.367,5.367,0,0,1,5.688-5.7c6.955,0,13.909.012,20.863-.009a5.738,5.738,0,0,1,4.707,2.213q3.276,3.985,6.6,7.929a5.884,5.884,0,0,1,1.431,3.938q-.017,15.143-.007,30.286a5.357,5.357,0,0,1-5.643,5.632q-14,0-28,0a5.362,5.362,0,0,1-5.636-5.639Q1048.528-501.96,1048.531-511.637Zm25-21.426h-19.325c-1.44,0-2.1.668-2.1,2.122v38.605a1.847,1.847,0,0,0,2.108,2.121h27.9c1.479,0,2.135-.66,2.135-2.15q0-14.672,0-29.345v-.642h-4.957a5.381,5.381,0,0,1-5.756-5.746C1073.53-529.73,1073.531-531.364,1073.531-533.064Zm3.592,1.025c0,1.639-.041,3.133.018,4.623a1.6,1.6,0,0,0,1.468,1.457c1.154.062,2.314.017,3.584.017Z" transform="translate(-512.16 3022.77)" fill="#fff"/>
      <path id="Path_15" data-name="Path 15" d="M1071.4-514.288v.982q0,6.191,0,12.383a1.782,1.782,0,0,1-2.457,1.776,1.809,1.809,0,0,1-1.116-1.825q.013-6.3,0-12.606v-.714c-.2.179-.335.287-.457.409-1.209,1.21-2.408,2.431-3.628,3.63a1.753,1.753,0,0,1-2.293.219,1.771,1.771,0,0,1-.618-2.175,2.254,2.254,0,0,1,.45-.628q3.482-3.5,6.98-6.984a1.765,1.765,0,0,1,2.706,0q3.5,3.482,6.982,6.981a1.775,1.775,0,0,1,.079,2.588,1.786,1.786,0,0,1-2.628-.079C1074.093-511.619,1072.788-512.914,1071.4-514.288Z" transform="translate(-513.601 3020.85)" fill="#fff"/>
    </g>
  </g>
</svg>
